<svg width="16" height="16" viewBox="0 0 16 16" fill="none" xmlns="http://www.w3.org/2000/svg">
<path opacity="0.12" d="M12.7477 4.74757L9.91928 1.91915C9.74827 1.74813 9.54947 1.61128 9.3335 1.513V4.26669C9.3335 4.64006 9.3335 4.82675 9.40616 4.96935C9.47007 5.0948 9.57206 5.19678 9.6975 5.2607C9.84011 5.33336 10.0268 5.33336 10.4002 5.33336H13.1539C13.0556 5.11739 12.9187 4.91859 12.7477 4.74757Z" fill="#535058"/>
<path d="M9.33317 1.513V4.26669C9.33317 4.64006 9.33317 4.82675 9.40583 4.96935C9.46975 5.0948 9.57174 5.19678 9.69718 5.2607C9.83978 5.33336 10.0265 5.33336 10.3998 5.33336H13.1535M10.6665 8.66665H5.33317M10.6665 11.3333H5.33317M6.6665 5.99998H5.33317M9.33317 1.33331H5.8665C4.7464 1.33331 4.18635 1.33331 3.75852 1.5513C3.3822 1.74305 3.07624 2.04901 2.88449 2.42533C2.6665 2.85316 2.6665 3.41321 2.6665 4.53331V11.4666C2.6665 12.5868 2.6665 13.1468 2.88449 13.5746C3.07624 13.951 3.3822 14.2569 3.75852 14.4487C4.18635 14.6666 4.7464 14.6666 5.8665 14.6666H10.1332C11.2533 14.6666 11.8133 14.6666 12.2412 14.4487C12.6175 14.2569 12.9234 13.951 13.1152 13.5746C13.3332 13.1468 13.3332 12.5868 13.3332 11.4666V5.33331L9.33317 1.33331Z" stroke="#535058" stroke-width="1.33333" stroke-linecap="round" stroke-linejoin="round"/>
</svg>
